<?xml version="1.0" standalone="no"?>
<!DOCTYPE svg PUBLIC "-//W3C//DTD SVG 20010904//EN"
 "http://www.w3.org/TR/2001/REC-SVG-20010904/DTD/svg10.dtd">
<svg version="1.0" xmlns="http://www.w3.org/2000/svg"
 width="300.000000pt" height="300.000000pt" viewBox="0 0 300.000000 300.000000"
 preserveAspectRatio="xMidYMid meet">
<metadata>
Created by potrace 1.11, written by Peter Selinger 2001-2013
</metadata>
<g transform="translate(0.000000,300.000000) scale(0.100000,-0.100000)"
fill="#000000" stroke="none">
<path d="M176 2028 c-9 -14 -13 -39 -11 -63 5 -47 15 -119 21 -146 2 -10 6
-29 9 -41 11 -50 40 -128 77 -207 99 -210 270 -390 466 -491 23 -12 42 -25 42
-29 0 -3 -130 -6 -289 -5 -210 0 -293 -3 -305 -12 -22 -16 -27 -48 -11 -70 12
-17 68 -18 1090 -18 1162 0 1094 -3 1095 51 0 46 -19 49 -325 48 -158 0 -288
2 -290 6 -2 3 12 13 31 22 160 77 369 283 455 450 11 20 25 37 32 37 6 0 31
-19 54 -43 65 -66 115 -88 209 -94 72 -5 88 -3 136 20 74 33 130 86 164 154
25 49 29 68 29 137 -1 114 -39 187 -135 258 -60 45 -109 56 -264 57 -128 2
-145 0 -167 -18 -21 -16 -26 -29 -28 -74 -13 -318 -215 -624 -522 -789 -69
-38 -219 -93 -279 -103 -19 -3 -44 -8 -55 -12 -30 -9 -254 -5 -310 6 -231 44
-404 137 -559 301 -166 176 -267 412 -275 642 -1 23 -28 48 -51 48 -11 0 -26
-10 -34 -22z m2432 -98 c84 -22 147 -114 140 -206 -16 -205 -278 -270 -382
-95 -11 20 -20 40 -18 45 1 4 -2 14 -8 22 -14 16 -10 90 7 125 25 50 96 102
157 115 10 2 21 6 24 9 3 3 13 3 21 1 9 -3 35 -10 59 -16z"/>
<path d="M1547 2003 c-2 -1 -92 -14 -132 -18 -11 -1 -31 -5 -45 -8 -14 -4 -36
-9 -50 -11 -14 -3 -35 -7 -47 -10 -13 -4 -33 -8 -45 -11 -19 -4 -59 -13 -90
-21 -5 -1 -9 -2 -10 -4 -4 -2 -38 -10 -63 -13 -12 -2 -26 -7 -33 -11 -7 -4
-12 -5 -12 -2 0 3 -11 1 -25 -4 -14 -5 -46 -12 -72 -16 -27 -3 -50 -7 -53 -9
-17 -10 -131 -19 -230 -19 -81 1 -133 7 -175 20 -33 10 -63 17 -67 16 -5 -1
-8 3 -8 9 0 5 -4 8 -9 4 -5 -3 -12 -1 -16 5 -3 5 -12 10 -20 10 -11 0 -11 -9
0 -58 8 -33 16 -70 19 -83 10 -52 62 -163 119 -253 37 -59 130 -158 195 -208
31 -23 59 -45 62 -48 26 -26 211 -110 275 -124 150 -34 268 -40 389 -19 45 8
86 15 91 17 263 70 527 283 620 501 10 22 21 48 26 58 12 23 2 22 -31 -5 -33
-27 -56 -44 -90 -63 -34 -19 -210 -106 -235 -116 -11 -5 -38 -15 -59 -24 -43
-17 -171 -50 -226 -59 -242 -38 -447 -19 -637 58 -96 40 -243 128 -243 147 0
14 4 12 91 -36 45 -25 85 -45 90 -45 5 0 17 -4 27 -9 22 -13 103 -37 167 -51
183 -40 405 -29 615 31 61 17 56 15 135 46 63 25 210 97 213 106 2 4 8 7 14 7
11 0 107 62 160 103 l37 29 -24 24 c-13 13 -28 24 -33 24 -5 0 -15 7 -22 15
-7 8 -16 12 -21 9 -5 -3 -12 1 -15 9 -3 8 -23 20 -45 27 -21 7 -39 17 -39 22
0 4 -3 7 -7 7 -5 -1 -11 0 -15 1 -5 1 -11 3 -15 4 -5 2 -33 10 -63 19 -73 21
-132 29 -236 31 -47 0 -86 0 -87 -1z"/>
</g>
</svg>
