<svg xmlns="http://www.w3.org/2000/svg" viewBox="0 0 1890.62158 532.34869"><title>logo</title><path d="M1786.622 22.276c-28-16-72-22.276-72-22.276h-615v76.276c-56-66-131-76.276-131-76.276h-228v337.276C724.51 471.534 621.082 476.011 599.55 475.471v-.195h-3.928c-122 0-143-124-143-124V0h-137l-255 227.276V0H0v531.42h63.622V310.276l241 222.073H599.55c197.928 0 196.072-196.073 196.072-196.073v-283h111c29 0 178-11 178 141s-149 151-149 151l135 186.144h631c37 0 101-27.144 144-71.144s45-112 45-112v-178c0-71-76-132-104-148zm-1466 453l-232-209.566 244-216.434h63.927V329.35s2.15 85.884 58.12 145.927zm779 3l-72-101c41-18 72-58 72-58zm398 0h-344v-188h277v-53h-277v-183h344zm343-137c-11 116-126 137-126 137h-164v-424h153c129 11 137 130 137 130z" fill="#ed1c24"/></svg>