<?xml version="1.0" encoding="utf-8"?>
<!-- Generator: Adobe Illustrator 21.1.0, SVG Export Plug-In . SVG Version: 6.00 Build 0)  -->
<svg version="1.1" xmlns="http://www.w3.org/2000/svg" xmlns:xlink="http://www.w3.org/1999/xlink" x="0px" y="0px"
	 viewBox="0 0 1059.1 1059.1" style="enable-background:new 0 0 1059.1 1059.1;" xml:space="preserve">
<style type="text/css">
	.st0{fill:#FFFFFF;}
</style>
<g id="Layer_2">
</g>
<g id="Layer_1">
	<g>
		<path class="st0" d="M529.6,0c-4.7,0-9.3,0.1-13.9,0.2c-0.5-0.1-1-0.1-1.5-0.1H10.6c-5.5,0-10,4.5-10,10v484.1c0,1,0.2,2,0.4,2.9
			c0,0.4-0.1,0.8-0.1,1.2C0.3,508.6,0,519,0,529.6c0,310.5,267.2,558.6,584.3,526.8c249.2-25,447.1-222.9,472.1-472.1
			C1088.1,267.2,840.1,0,529.6,0z M530.3,914c-212.1,0-384.1-172-384.1-384.1s172-384.1,384.1-384.1s384.1,172,384.1,384.1
			S742.5,914,530.3,914z"/>
	</g>
</g>
</svg>
