<svg xmlns="http://www.w3.org/2000/svg" viewBox="0 0 1890.62158 532.34869"><title>logo</title><path d="M1786.62158,22.27643c-28-16-72-22.27643-72-22.27643h-615V76.27643c-56-66-131-76.27643-131-76.27643h-228V337.27643C724.51062,471.53424,621.0824,476.01056,599.54974,475.4715v-.19507h-3.92816c-122,0-143-124-143-124V0h-137l-255,227.27643V0H0V531.42H63.62158V310.27643l241,222.07227H599.54974c197.92822,0,196.07184-196.07227,196.07184-196.07227v-283h111c29,0,178-11,178,141s-149,151-149,151l135,186.14355h631c37,0,101-27.14355,144-71.14355s45-112,45-112v-178C1890.62158,99.27643,1814.62158,38.27643,1786.62158,22.27643Zm-1466,453-232-209.56641,244-216.43359h63.92767V329.34869s2.15051,85.88458,58.12024,145.92773Zm779,3-72-101c41-18,72-58,72-58Zm398,0h-344v-188h277v-53h-277v-183h344Zm343-137c-11,116-126,137-126,137h-164v-424h153c129,11,137,130,137,130Z" style="fill:#ed1c24"/></svg>